<?xml version="1.0" encoding="utf-8"?>
<!-- Generator: Adobe Illustrator 23.1.1, SVG Export Plug-In . SVG Version: 6.00 Build 0)  -->
<svg version="1.1" id="Laag_1" xmlns="http://www.w3.org/2000/svg" xmlns:xlink="http://www.w3.org/1999/xlink" x="0px" y="0px"
	 viewBox="0 0 400.3 72" style="enable-background:new 0 0 400.3 72;" xml:space="preserve">
<style type="text/css">
	.st0{fill:#FFFFFF;}
</style>
<g>
	<path class="st0" d="M226.1,0c-18.6,0.9-33.6,15.9-34.2,34.2C191,54.9,207.5,72,227.9,72c11.1,0,21.3-5.1,27.9-13.2
		c0.6-0.9,0.6-2.1-0.3-2.7l-11.7-7.2c-0.9-0.6-1.8-0.3-2.4,0.3c-3.3,3.6-8.1,5.7-13.2,5.7c-7.5,0-13.8-4.8-16.5-11.1h28.8h4.5h17.1
		c0.9,0,1.8-0.6,1.8-1.5c0.3-2.1,0.6-4.2,0.6-6.3C263.9,15.6,246.8-0.9,226.1,0z M210.8,29.1c2.4-7.2,9-12.3,17.1-12.3
		c7.8,0,14.7,5.1,17.1,12.3C245,29.1,210.8,29.1,210.8,29.1z"/>
	<path class="st0" d="M317.5,1.2c-4.2-0.3-16.2-0.3-22.8,10.8l-2.1-8.7c-0.3-0.9-0.9-1.5-1.8-1.5h-11.1c-0.9,0-1.8,0.9-1.8,1.8v64.5
		c0,0.9,0.9,1.8,1.8,1.8h15c0.9,0,1.8-0.9,1.8-1.8v-36c1.5-5.7,5.4-12.9,15.9-12.9c2.1,0,3.3,0,4.5,0.3c0.9,0.3,1.8-0.6,1.8-1.8V3
		C319,2.1,318.4,1.5,317.5,1.2z"/>
	<path class="st0" d="M364.3,0c-19.8,0-36,16.2-36,36s16.2,36,36,36s36-16.2,36-36C400.3,15.9,384.1,0,364.3,0z M382,37.2
		c0,9.9-8.1,18-18,18l0,0c-9.9,0-18-8.1-18-18v-2.7c0-9.9,8.1-18,18-18l0,0c9.9,0,18,8.1,18,18V37.2z"/>
	<path class="st0" d="M96.6,1.8H81.9c-0.9,0-1.8,0.9-1.8,1.8v64.5c0,0.9,0.9,1.8,1.8,1.8h14.7c0.9,0,1.8-0.9,1.8-1.8V3.6
		C98.4,2.7,97.8,1.8,96.6,1.8z"/>
	<path class="st0" d="M150.2,0c-19.2,0.3-35.1,16.2-35.4,35.4c-0.3,20.1,15.9,36.6,36,36.6c11.1,0,21.3-5.1,27.9-13.2
		c0.6-0.9,0.6-2.1-0.3-2.7l-11.7-7.2c-0.9-0.6-1.8-0.3-2.4,0.3c-3.3,3.6-8.1,6-13.2,6c-9.9,0-18-7.5-18-19.2
		c0-11.4,8.1-19.2,18-19.2c5.7,0,10.5,2.7,13.8,6.6c0.6,0.6,1.5,0.9,2.4,0.3l12-7.2c0.9-0.6,1.2-1.8,0.6-2.7
		C173,5.1,162.2-0.3,150.2,0z"/>
	<path class="st0" d="M35.4,0C16.2,0.3,0.3,16.2,0,35.4C-0.3,55.5,15.9,72,36,72c11.1,0,21.3-5.1,27.9-13.2c0.6-0.9,0.6-2.1-0.3-2.7
		l-11.7-7.2c-0.9-0.6-1.8-0.3-2.4,0.3c-3.3,3.6-8.1,6-13.2,6c-9.9,0-18-7.5-18-19.2c0-11.4,8.1-19.2,18-19.2
		c5.7,0,10.5,2.7,13.8,6.6c0.6,0.6,1.5,0.9,2.4,0.3l12-7.2c0.9-0.6,1.2-1.8,0.6-2.7C57.9,5.1,47.4-0.3,35.4,0z"/>
</g>
</svg>
