<?xml version="1.0" encoding="utf-8"?>
<!-- Generator: Adobe Illustrator 23.1.1, SVG Export Plug-In . SVG Version: 6.00 Build 0)  -->
<svg version="1.1" id="Laag_1" xmlns="http://www.w3.org/2000/svg" xmlns:xlink="http://www.w3.org/1999/xlink" x="0px" y="0px"
	 viewBox="0 0 106.8 24.2" style="enable-background:new 0 0 106.8 24.2;" xml:space="preserve">
<style type="text/css">
	.st0{fill:#FFFFFF;}
</style>
<g>
	<path class="st0" d="M94.7-0.2c-6.7,0-12.1,5.4-12.1,12.1S88,24,94.7,24s12.1-5.4,12.1-12.1C106.8,5.2,101.4-0.2,94.7-0.2z
		 M94.7,18.8c-3.8,0-6.9-3.1-6.9-6.9S90.9,5,94.7,5s6.9,3.1,6.9,6.9S98.5,18.8,94.7,18.8z"/>
	<path class="st0" d="M76,9.8c-2.2,0-10.2,0-10.2,0c-0.3,0-0.6,0.3-0.6,0.6v4c0,0.3,0.3,0.6,0.6,0.6h5.6v1.4
		c-1.3,1.6-3.2,2.5-5.3,2.5c-3.8,0-6.9-3.1-6.9-6.9s3.1-6.9,6.9-6.9c1.8,0,3.6,0.7,4.9,2c0.2,0.2,0.6,0.2,0.8,0l3-2.6
		c0.3-0.2,0.3-0.6,0-0.8C72.5,1.3,69.4,0,66.1,0C59.4,0,54,5.4,54,12.1s5.4,12.1,12.1,12.1c4,0,7.8-2,10-5.3l0.4-0.5
		c0.1-0.1,0.1-0.2,0.1-0.3v-7.5C76.5,10.1,76.3,9.8,76,9.8z"/>
	<path class="st0" d="M47.9,8.5c0-2.2-0.8-4.3-2.3-5.8c-1.6-1.6-3.7-2.5-6-2.5H27.4c-0.3,0-0.6,0.3-0.6,0.6v22.5
		c0,0.3,0.3,0.6,0.6,0.6h4c0.3,0,0.6-0.3,0.6-0.6v-6.8h5.3l4,7c0.1,0.2,0.3,0.3,0.5,0.3h4.7c0.5,0,0.8-0.5,0.5-0.9l-4.2-7.1
		C45.8,14.5,47.8,11.7,47.9,8.5z M32,5.3h7.7c0.8,0,1.5,0.3,2.1,0.8c0.6,0.6,0.9,1.3,0.9,2.2c0,1.6-1.4,2.9-3,2.9h-7.6L32,5.3
		L32,5.3z"/>
	<path class="st0" d="M19.5,19.2v4c0,0.3-0.3,0.6-0.6,0.6H5.7c-0.3,0-0.6-0.3-0.6-0.6v-4.6h13.7C19.3,18.6,19.5,18.9,19.5,19.2z"/>
	<g>
		<path class="st0" d="M11.8,9.3H0.1V18c0,0.3,0.3,0.6,0.6,0.6h4.6v-4.1h6.5c0.3,0,0.6-0.3,0.6-0.6v-4C12.3,9.6,12.1,9.3,11.8,9.3z"
			/>
		<path class="st0" d="M17.3,0.2H0.6C0.3,0.2,0,0.5,0,0.8v4.6h17.3c0.3,0,0.6-0.3,0.6-0.6v-4C17.9,0.4,17.7,0.2,17.3,0.2z"/>
	</g>
</g>
</svg>
