<?xml version="1.0" encoding="utf-8"?>
<!-- Generator: Adobe Illustrator 21.1.0, SVG Export Plug-In . SVG Version: 6.00 Build 0)  -->
<svg version="1.1" id="Laag_1" xmlns="http://www.w3.org/2000/svg" xmlns:xlink="http://www.w3.org/1999/xlink" x="0px" y="0px"
	 viewBox="0 0 190.7 190.7" style="enable-background:new 0 0 190.7 190.7;" xml:space="preserve">
<style type="text/css">
	.st0{fill:#030304;}
	.st1{fill:#FFFFFF;}
</style>
<path class="st0" d="M95.3,0L95.3,0c52.7,0,95.4,42.7,95.4,95.3v0c0,52.7-42.7,95.3-95.3,95.3h0C42.7,190.7,0,148,0,95.4v0
	C0,42.7,42.7,0,95.3,0z"/>
<g>
	<path class="st1" d="M136.8,83.2c-6.7,0-12.1,5.4-12.1,12.1s5.4,12.1,12.1,12.1s12.1-5.4,12.1-12.1
		C148.9,88.6,143.5,83.2,136.8,83.2z M136.8,102.2c-3.8,0-6.9-3.1-6.9-6.9c0-3.8,3.1-6.9,6.9-6.9s6.9,3.1,6.9,6.9
		S140.6,102.2,136.8,102.2z"/>
	<path class="st1" d="M118.1,93.2c-2.2,0-10.2,0-10.2,0c-0.3,0-0.6,0.3-0.6,0.6v4c0,0.3,0.3,0.6,0.6,0.6h5.6v1.4
		c-1.3,1.6-3.2,2.5-5.3,2.5c-3.8,0-6.9-3.1-6.9-6.9c0-3.8,3.1-6.9,6.9-6.9c1.8,0,3.6,0.7,4.9,2c0.2,0.2,0.6,0.2,0.8,0l3-2.6
		c0.3-0.2,0.3-0.6,0-0.8c-2.3-2.4-5.4-3.7-8.7-3.7c-6.7,0-12.1,5.4-12.1,12.1c0,6.7,5.4,12.1,12.1,12.1c4,0,7.8-2,10-5.3l0.4-0.5
		c0.1-0.1,0.1-0.2,0.1-0.3V94C118.6,93.5,118.4,93.2,118.1,93.2z"/>
	<path class="st1" d="M90,91.9c0-2.2-0.8-4.3-2.3-5.8c-1.6-1.6-3.7-2.5-6-2.5H69.5c-0.3,0-0.6,0.3-0.6,0.6v22.5
		c0,0.3,0.3,0.6,0.6,0.6h4c0.3,0,0.6-0.3,0.6-0.6v-6.8h5.3l4,7c0.1,0.2,0.3,0.3,0.5,0.3h4.7c0.5,0,0.8-0.5,0.5-0.9l-4.2-7.1
		C87.9,97.9,89.9,95.1,90,91.9z M74.1,88.7h7.7c0.8,0,1.5,0.3,2.1,0.8c0.6,0.6,0.9,1.3,0.9,2.2c0,1.6-1.4,2.9-3,2.9h-7.6v-5.9H74.1z
		"/>
	<path class="st1" d="M61.6,102.6v4c0,0.3-0.3,0.6-0.6,0.6H47.8c-0.3,0-0.6-0.3-0.6-0.6V102h13.7C61.4,102,61.6,102.3,61.6,102.6z"
		/>
	<g>
		<path class="st1" d="M53.9,92.7H42.2v8.7c0,0.3,0.3,0.6,0.6,0.6h4.6v-4.1h6.5c0.3,0,0.6-0.3,0.6-0.6v-4
			C54.4,93,54.2,92.7,53.9,92.7z"/>
		<path class="st1" d="M59.4,83.6H42.7c-0.3,0-0.6,0.3-0.6,0.6v4.6h17.3c0.3,0,0.6-0.3,0.6-0.6v-4C60,83.8,59.8,83.6,59.4,83.6z"/>
	</g>
</g>
</svg>
