<svg id="Laag_1" data-name="Laag 1" xmlns="http://www.w3.org/2000/svg" viewBox="0 0 314.5 80.4"><defs><style>.cls-1{fill:#14203c;}.cls-2{fill:#fff;}</style></defs><title>POWEREDBY-MARK-AND-TEXT</title><path class="cls-1" d="M740,200.4H438.5a6.49,6.49,0,0,1-6.5-6.5V126.5a6.49,6.49,0,0,1,6.5-6.5H740a6.49,6.49,0,0,1,6.5,6.5v67.4A6.49,6.49,0,0,1,740,200.4Z" transform="translate(-432 -120)"/><path class="cls-2" d="M597.5,180.5h14.3l-13.1-40.6H584.4l3.5,10.8h-7l-9.7,29.8h14.4l5.8-18.6h.1Zm-.7-37.9,11.3,35.2h-8.7l-11.3-35.2Zm-6.2,16.6h-5.3l-1.9-5.8h5.4Zm-7,18.6h-8.7l6.8-20.9,1.7,5h5.2Z" transform="translate(-432 -120)"/><path class="cls-2" d="M450.9,166.4V152.2h6.4a5.66,5.66,0,0,1,1.8.3,2.54,2.54,0,0,1,1.3.9,3.22,3.22,0,0,1,.8,1.4,5.55,5.55,0,0,1,0,3.6,6.38,6.38,0,0,1-.8,1.4,3.81,3.81,0,0,1-1.3.9,4.84,4.84,0,0,1-1.8.3h-3.7v5.4Zm2.7-7.8h3.5a1.41,1.41,0,0,0,1.6-1.6v-.9a1.41,1.41,0,0,0-1.6-1.6h-3.5Z" transform="translate(-432 -120)"/><path class="cls-2" d="M467.5,166.6a4.51,4.51,0,0,1-3.5-1.5,5.24,5.24,0,0,1-1-1.8,9,9,0,0,1,0-4.6,4,4,0,0,1,1-1.7,4.18,4.18,0,0,1,1.5-1.1,4.48,4.48,0,0,1,2-.4,4.92,4.92,0,0,1,2.1.4,5.72,5.72,0,0,1,1.6,1.1,5.85,5.85,0,0,1,1,1.7,9,9,0,0,1,0,4.6,5.24,5.24,0,0,1-1,1.8,3.09,3.09,0,0,1-1.6,1.1A4.64,4.64,0,0,1,467.5,166.6Zm0-2.1a2.11,2.11,0,0,0,1.6-.6,2.44,2.44,0,0,0,.6-1.8v-2a2.44,2.44,0,0,0-.6-1.8,2.43,2.43,0,0,0-3.2,0,2.44,2.44,0,0,0-.6,1.8v2a2.44,2.44,0,0,0,.6,1.8A2.11,2.11,0,0,0,467.5,164.5Z" transform="translate(-432 -120)"/><path class="cls-2" d="M473.5,155.8H476l1.1,4.4.8,3.6h.1l1-3.6,1.2-4.4h2.4l1.3,4.4,1,3.6h.1l.8-3.6,1.1-4.4h2.4l-2.9,10.6h-2.8l-1.4-4.7-.8-2.9h-.1l-.8,2.9-1.3,4.7h-2.8Z" transform="translate(-432 -120)"/><path class="cls-2" d="M495.3,166.6a4.64,4.64,0,0,1-2.1-.4,5.72,5.72,0,0,1-1.6-1.1,4.25,4.25,0,0,1-1-1.7,9,9,0,0,1,0-4.6,3.23,3.23,0,0,1,1-1.7,3.27,3.27,0,0,1,1.5-1.1,4.64,4.64,0,0,1,2.1-.4,5.38,5.38,0,0,1,2.2.4,3.64,3.64,0,0,1,1.5,1.2,5.56,5.56,0,0,1,.9,1.7,6.65,6.65,0,0,1,.3,2.1v.9h-7v.3a2.44,2.44,0,0,0,.6,1.8,2.35,2.35,0,0,0,1.9.7,2.73,2.73,0,0,0,1.6-.4,5.24,5.24,0,0,0,1.1-1l1.4,1.6a3.68,3.68,0,0,1-1.8,1.4A18.64,18.64,0,0,1,495.3,166.6Zm-.1-9.1a1.86,1.86,0,0,0-1.6.7,2.79,2.79,0,0,0-.6,1.8v.2h4.3V160a3.45,3.45,0,0,0-.5-1.8A1.86,1.86,0,0,0,495.2,157.5Z" transform="translate(-432 -120)"/><path class="cls-2" d="M502.3,166.4V155.8h2.6V158h.1a6.89,6.89,0,0,1,.3-.8,1.34,1.34,0,0,1,.6-.7,2.18,2.18,0,0,1,.8-.5,3.59,3.59,0,0,1,1.1-.2h.6v2.5h-.8a3.74,3.74,0,0,0-2,.4,1.56,1.56,0,0,0-.7,1.3v6.5h-2.6Z" transform="translate(-432 -120)"/><path class="cls-2" d="M514.5,166.6a4.64,4.64,0,0,1-2.1-.4,5.72,5.72,0,0,1-1.6-1.1,5.85,5.85,0,0,1-1-1.7,8,8,0,0,1-.3-2.3,8.52,8.52,0,0,1,.3-2.3,3.23,3.23,0,0,1,1-1.7,3.27,3.27,0,0,1,1.5-1.1,4.64,4.64,0,0,1,2.1-.4,5.38,5.38,0,0,1,2.2.4,4.43,4.43,0,0,1,1.5,1.2,5.56,5.56,0,0,1,.9,1.7,6.65,6.65,0,0,1,.3,2.1v.9h-7v.3a2.44,2.44,0,0,0,.6,1.8,2.35,2.35,0,0,0,1.9.7,2.73,2.73,0,0,0,1.6-.4,5.24,5.24,0,0,0,1.1-1l1.4,1.6a3.68,3.68,0,0,1-1.8,1.4A7.16,7.16,0,0,1,514.5,166.6Zm0-9.1a1.86,1.86,0,0,0-1.6.7,2.79,2.79,0,0,0-.6,1.8v.2h4.3V160a3.45,3.45,0,0,0-.5-1.8A2.13,2.13,0,0,0,514.5,157.5Z" transform="translate(-432 -120)"/><path class="cls-2" d="M528.1,164.6H528a2.7,2.7,0,0,1-1.1,1.5,2.9,2.9,0,0,1-1.8.5,3.81,3.81,0,0,1-3.1-1.4,6.68,6.68,0,0,1-1.1-4.1A6.89,6.89,0,0,1,522,157a3.89,3.89,0,0,1,4.9-.9,2.83,2.83,0,0,1,1.1,1.5h.1v-6.2h2.6v15h-2.6Zm-2.2-.2a2.93,2.93,0,0,0,1.6-.4,1.49,1.49,0,0,0,.6-1.3v-3.4a1.43,1.43,0,0,0-.6-1.2,2.54,2.54,0,0,0-1.6-.5,1.86,1.86,0,0,0-1.6.7,2.79,2.79,0,0,0-.6,1.8v1.8a2.44,2.44,0,0,0,.6,1.8A1.86,1.86,0,0,0,525.9,164.4Z" transform="translate(-432 -120)"/><path class="cls-2" d="M538.5,151.3h2.6v6.2h.1a2.7,2.7,0,0,1,1.1-1.5,2.73,2.73,0,0,1,1.8-.5,3.68,3.68,0,0,1,3.1,1.4,8.19,8.19,0,0,1,0,8.2,3.68,3.68,0,0,1-3.1,1.4,3.45,3.45,0,0,1-1.8-.5,3.27,3.27,0,0,1-1.1-1.5h-.1v1.8h-2.6Zm4.8,13.1a1.86,1.86,0,0,0,1.6-.7,2.61,2.61,0,0,0,.6-1.8v-1.8a2.44,2.44,0,0,0-.6-1.8,2.36,2.36,0,0,0-1.6-.7,3,3,0,0,0-1.6.5,1.43,1.43,0,0,0-.6,1.2v3.4a1.49,1.49,0,0,0,.6,1.3A2.73,2.73,0,0,0,543.3,164.4Z" transform="translate(-432 -120)"/><path class="cls-2" d="M557,155.8h2.4l-4.3,12.5a3.13,3.13,0,0,1-.5,1,4.35,4.35,0,0,1-.6.7,2,2,0,0,1-.8.4,3.75,3.75,0,0,1-1.1.1h-1.6v-2.1h1.9l.5-1.5-3.8-11.1h2.6l1.8,5.6.7,2.7h.1l.7-2.7Z" transform="translate(-432 -120)"/><path class="cls-2" d="M701.3,148.3a4.8,4.8,0,0,0-4.8-4.8H690v14.1h2.5v-4.4h3.8l2.1,4.4h2.8l-2.3-5.1A4.87,4.87,0,0,0,701.3,148.3Zm-4.8,2.2h-3.9V146h3.9a2.22,2.22,0,0,1,2.2,2.2A2.24,2.24,0,0,1,696.5,150.5Z" transform="translate(-432 -120)"/><path class="cls-2" d="M632.4,162.9H626V177h2.5v-4.4h3.9a4.8,4.8,0,0,0,4.8-4.8h0A4.82,4.82,0,0,0,632.4,162.9Zm0,7.1h-3.9v-4.5h3.9a2.22,2.22,0,0,1,2.2,2.2A2.13,2.13,0,0,1,632.4,170Z" transform="translate(-432 -120)"/><path class="cls-2" d="M647.6,155.3a4.81,4.81,0,0,1,0-9.6,4.74,4.74,0,0,1,3.8,1.9l1.7-1.7a7.16,7.16,0,0,0-5.5-2.7,7.3,7.3,0,0,0,0,14.6,7,7,0,0,0,5.9-3.2l-1.9-1.5A4.49,4.49,0,0,1,647.6,155.3Z" transform="translate(-432 -120)"/><path class="cls-2" d="M634,143.5h-3.6L626,157.6h2.6l.6-2h5.9l.6,2h2.6Zm-4,9.7,2.2-7.2,2.2,7.2Z" transform="translate(-432 -120)"/><polygon class="cls-2" points="293.7 42.9 282.8 42.9 282.8 45.4 287 45.4 287 57 287 57 289.5 57 289.5 57 289.5 45.4 293.7 45.4 293.7 42.9"/><path class="cls-2" d="M710,143.5h-4.6v14.1H710a7,7,0,0,0,7-7A7,7,0,0,0,710,143.5Zm4.6,7a4.37,4.37,0,0,1-4.4,4.4h-2.3V146h2.3a4.6,4.6,0,0,1,4.4,4.5Z" transform="translate(-432 -120)"/><path class="cls-2" d="M682.4,162.9h-8.6v2.5h6.1v5.7c0,2-1,3.7-3.5,3.7a5,5,0,0,1-3.7-1.9l-1.7,1.7a6.75,6.75,0,0,0,5.4,2.7,5.67,5.67,0,0,0,6-5.8v-.3h0v-8.3Z" transform="translate(-432 -120)"/><path class="cls-2" d="M663.4,155.3a4.81,4.81,0,0,1,0-9.6,4.74,4.74,0,0,1,3.8,1.9l1.7-1.7a7.16,7.16,0,0,0-5.5-2.7,7.3,7.3,0,0,0,0,14.6,7,7,0,0,0,5.9-3.2l-1.9-1.5A4.73,4.73,0,0,1,663.4,155.3Z" transform="translate(-432 -120)"/><path class="cls-2" d="M679.2,143.3a7.3,7.3,0,1,0,7.1,7.3A7.24,7.24,0,0,0,679.2,143.3Zm0,12a4.62,4.62,0,0,1-4.5-4.8,4.68,4.68,0,0,1,4.5-4.8,4.81,4.81,0,0,1,0,9.6Z" transform="translate(-432 -120)"/><path class="cls-2" d="M661.9,162.7A7.3,7.3,0,1,0,669,170,7.24,7.24,0,0,0,661.9,162.7Zm0,12a4.81,4.81,0,1,1,4.5-4.8A4.62,4.62,0,0,1,661.9,174.7Z" transform="translate(-432 -120)"/><path class="cls-2" d="M651.8,167.7a4.8,4.8,0,0,0-4.8-4.8h-6.4V177h2.5v-4.4h3.8L649,177h2.8l-2.3-5.1A5,5,0,0,0,651.8,167.7ZM647,170h-4v-4.5h3.9a2.22,2.22,0,0,1,2.2,2.2A2.1,2.1,0,0,1,647,170Z" transform="translate(-432 -120)"/><polygon class="cls-2" points="264.6 45.4 264.6 42.9 254.6 42.9 254.6 57 264.6 57 264.6 54.5 257.1 54.5 257.1 51.2 262.6 51.2 262.6 48.7 257.1 48.7 257.1 45.4 264.6 45.4"/><path class="cls-2" d="M706.7,174.7a4.81,4.81,0,0,1,0-9.6,4.74,4.74,0,0,1,3.8,1.9l1.7-1.7a7.16,7.16,0,0,0-5.5-2.7,7.3,7.3,0,0,0,0,14.6,7,7,0,0,0,5.9-3.2l-1.9-1.5A4.73,4.73,0,0,1,706.7,174.7Z" transform="translate(-432 -120)"/></svg>